<svg xmlns="http://www.w3.org/2000/svg" width="22" height="22" viewBox="0 0 22 22">
  <g id="Group_164" data-name="Group 164" transform="translate(-5537 3233)">
    <rect id="Rectangle_37" data-name="Rectangle 37" width="13" height="14" transform="translate(5542 -3229)" fill="#fff"/>
    <g id="Layer_2" data-name="Layer 2" transform="translate(5536 -3234)">
      <path id="Path_115" data-name="Path 115" d="M12,1A11,11,0,1,0,23,12,11,11,0,0,0,12,1Zm4.242,13.829a1,1,0,1,1-1.414,1.414L12,13.414,9.172,16.243a1,1,0,1,1-1.414-1.414L10.586,12,7.758,9.171A1,1,0,1,1,9.172,7.757L12,10.586l2.828-2.829a1,1,0,1,1,1.414,1.414L13.414,12Z" fill="#bf3946"/>
    </g>
  </g>
</svg>
